<svg xmlns="http://www.w3.org/2000/svg" viewBox="0 0 290 290" xml:space="preserve" height="24" width="24">
	<path d="M260 290H30c-16.6 0-30-13.4-30-30V82h290v178c0 16.6-13.4 30-30 30" style="fill: #black" />
	<path
		d="M290 82H0V30C0 13.4 13.4 0 30 0h230c16.6 0 30 13.4 30 30zm-38.5 52h-213c-1.9 0-3.5-1.6-3.5-3.5s1.6-3.5 3.5-3.5h213c1.9 0 3.5 1.6 3.5 3.5s-1.6 3.5-3.5 3.5m0 48h-213c-1.9 0-3.5-1.6-3.5-3.5s1.6-3.5 3.5-3.5h213c1.9 0 3.5 1.6 3.5 3.5s-1.6 3.5-3.5 3.5m0 48h-213c-1.9 0-3.5-1.6-3.5-3.5s1.6-3.5 3.5-3.5h213c1.9 0 3.5 1.6 3.5 3.5s-1.6 3.5-3.5 3.5"
		style="fill: #fefbfb" />
</svg>