<?xml version="1.0" encoding="utf-8"?>
<!-- Generator: Adobe Illustrator 23.0.5, SVG Export Plug-In . SVG Version: 6.00 Build 0)  -->
<svg version="1.1" id="Layer_1" xmlns="http://www.w3.org/2000/svg" xmlns:xlink="http://www.w3.org/1999/xlink" x="0px" y="0px"
	 viewBox="0 0 290 290" style="enable-background:new 0 0 290 290;" xml:space="preserve">
<style type="text/css">
	.st0{fill:#FFFFFF;}
	.st1{fill:none;stroke:#000000;stroke-width:4;stroke-miterlimit:10;}
	.st2{fill:#D1D5DC;}
	.st3{fill:#AD2831;}
	.st4{fill:#640D14;}
	.st5{fill-rule:evenodd;clip-rule:evenodd;fill:none;stroke:#640D14;stroke-width:5;stroke-miterlimit:10;}
	.st6{fill:none;stroke:#640D14;stroke-width:5;stroke-miterlimit:10;}
	.st7{fill:none;stroke:#000000;stroke-width:25;stroke-miterlimit:10;}
	.st8{fill-rule:evenodd;clip-rule:evenodd;fill:none;stroke:#000000;stroke-width:4;stroke-miterlimit:10;}
	.st9{stroke:#000000;stroke-width:25;stroke-miterlimit:10;}
</style>
<g>
	<path class="st2" d="M260,290H30c-16.6,0-30-13.4-30-30V82h290v178C290,276.6,276.6,290,260,290z"/>
</g>
<g>
	<path d="M290,82H0V30C0,13.4,13.4,0,30,0h230c16.6,0,30,13.4,30,30V82z"/>
</g>
<path d="M251.5,134h-213c-1.9,0-3.5-1.6-3.5-3.5l0,0c0-1.9,1.6-3.5,3.5-3.5h213c1.9,0,3.5,1.6,3.5,3.5l0,0
	C255,132.4,253.4,134,251.5,134z"/>
<path d="M251.5,182h-213c-1.9,0-3.5-1.6-3.5-3.5l0,0c0-1.9,1.6-3.5,3.5-3.5h213c1.9,0,3.5,1.6,3.5,3.5l0,0
	C255,180.4,253.4,182,251.5,182z"/>
<path d="M251.5,230h-213c-1.9,0-3.5-1.6-3.5-3.5l0,0c0-1.9,1.6-3.5,3.5-3.5h213c1.9,0,3.5,1.6,3.5,3.5l0,0
	C255,228.4,253.4,230,251.5,230z"/>
</svg>
