<?xml version="1.0" encoding="utf-8"?>
<!-- Generator: Adobe Illustrator 23.0.5, SVG Export Plug-In . SVG Version: 6.00 Build 0)  -->
<svg version="1.1" id="Layer_1" xmlns="http://www.w3.org/2000/svg" xmlns:xlink="http://www.w3.org/1999/xlink" x="0px" y="0px"
	 viewBox="0 0 332 290" style="enable-background:new 0 0 332 290;" xml:space="preserve">
<style type="text/css">
	.st0{fill-rule:evenodd;clip-rule:evenodd;fill:none;stroke:#640D14;stroke-width:5;stroke-miterlimit:10;}
	.st1{fill:none;stroke:#640D14;stroke-width:5;stroke-miterlimit:10;}
	.st2{fill:#FFFFFF;}
	.st3{fill:#AD2831;}
	.st4{fill:#640D14;}
	.st5{fill:none;stroke:#000000;stroke-width:4;stroke-miterlimit:10;}
	.st6{fill-rule:evenodd;clip-rule:evenodd;fill:none;stroke:#000000;stroke-width:4;stroke-miterlimit:10;}
</style>
<path class="st0" d="M290,233h32.2c3.8,0,6.8-6.7,6.8-15v-86c0-8.3-3-15-6.8-15H290"/>
<g>
	<line class="st1" x1="306" y1="105" x2="306" y2="129"/>
</g>
<line class="st1" x1="306" y1="233" x2="289" y2="221"/>
<line class="st1" x1="289" y1="245" x2="306" y2="233"/>
<g>
	<path class="st3" d="M260,290H30c-16.6,0-30-13.4-30-30V82h290v178C290,276.6,276.6,290,260,290z"/>
</g>
<g>
	<path class="st4" d="M290,82H0V30C0,13.4,13.4,0,30,0h230c16.6,0,30,13.4,30,30V82z"/>
</g>
<path class="st4" d="M251.5,134h-213c-1.9,0-3.5-1.6-3.5-3.5l0,0c0-1.9,1.6-3.5,3.5-3.5h213c1.9,0,3.5,1.6,3.5,3.5l0,0
	C255,132.4,253.4,134,251.5,134z"/>
<path class="st4" d="M251.5,182h-213c-1.9,0-3.5-1.6-3.5-3.5l0,0c0-1.9,1.6-3.5,3.5-3.5h213c1.9,0,3.5,1.6,3.5,3.5l0,0
	C255,180.4,253.4,182,251.5,182z"/>
<path class="st4" d="M251.5,230h-213c-1.9,0-3.5-1.6-3.5-3.5l0,0c0-1.9,1.6-3.5,3.5-3.5h213c1.9,0,3.5,1.6,3.5,3.5l0,0
	C255,228.4,253.4,230,251.5,230z"/>
</svg>
